M48
; DRILL file {KiCad (5.1.6)-1} date 08/30/20 19:28:33
; FORMAT={-:-/ absolute / inch / decimal}
; #@! TF.CreationDate,2020-08-30T19:28:33+05:30
; #@! TF.GenerationSoftware,Kicad,Pcbnew,(5.1.6)-1
FMAT,2
INCH
T1C0.0236
T2C0.0256
T3C0.0276
T4C0.0315
T5C0.0394
T6C0.0433
T7C0.0591
T8C0.0866
T9C0.0669
T10C0.1201
T11C0.1575
%
G90
G05
T1
X1.2598Y-1.2598
X1.2598Y-1.6142
X1.2598Y-2.0472
X1.2598Y-2.7953
X1.2598Y-3.5433
X1.2598Y-4.2913
X1.2598Y-5.0394
X1.2598Y-5.7087
X2.6311Y-1.7861
X3.0315Y-5.7087
X3.1311Y-1.7861
X3.2311Y-2.3061
X3.6311Y-1.7861
X3.9911Y-2.2811
X4.1511Y-2.9661
X4.3311Y-1.7861
X4.4311Y-3.0511
X4.5411Y-3.4961
X4.5861Y-2.6711
X4.7411Y-2.2861
X4.9311Y-1.7861
X5.1181Y-5.7087
X5.3011Y-3.7711
X5.4061Y-3.6161
X5.6311Y-1.7911
X6.1111Y-3.4511
X6.1361Y-3.6361
X6.3311Y-3.6011
X6.5311Y-1.6611
X6.6661Y-3.3011
X6.9461Y-3.6961
X7.3622Y-5.7087
X7.7559Y-3.7008
X7.7581Y-2.7141
X8.0811Y-1.8411
X8.0811Y-1.9211
X8.0811Y-2.0011
X8.0811Y-2.0811
X8.1111Y-1.8811
X8.1111Y-1.9611
X8.1111Y-2.0411
X8.1111Y-2.1211
X8.1113Y-2.2213
X8.6061Y-3.6296
X8.6311Y-1.6811
X8.7011Y-1.5811
X8.8111Y-2.7761
X8.8811Y-1.2761
X8.9811Y-1.9861
X8.9911Y-1.2761
X9.0911Y-1.2761
X9.1811Y-1.2761
X9.2581Y-3.5411
X9.2811Y-1.2761
X9.3811Y-1.2761
X9.3811Y-1.7511
X9.4811Y-1.2761
X9.6063Y-5.7087
X9.6911Y-1.4511
X9.6961Y-1.2811
X9.767Y-1.7652
X9.8816Y-2.7701
X9.9311Y-1.8111
X9.9311Y-1.9911
X9.9391Y-3.3926
X10.1751Y-3.6916
X10.1811Y-1.7011
X10.1811Y-2.0611
X10.3561Y-2.9686
X10.3811Y-1.8811
X10.4321Y-3.3926
X10.5512Y-5.7087
X10.5721Y-3.3576
X10.9801Y-2.4986
X12.3228Y-1.2598
X12.3228Y-1.6142
X12.3228Y-2.0472
X12.3228Y-2.7953
X12.3228Y-3.5433
X12.3228Y-4.2913
X12.3228Y-5.0394
X12.3228Y-5.7087
X10.3811Y-1.7061
X10.3811Y-1.7652
T3
X6.8811Y-1.5311
X6.8811Y-1.7311
X10.0811Y-1.2811
X10.0811Y-1.4811
X6.1811Y-1.5311
X6.1811Y-1.7311
X5.7811Y-1.5311
X5.7811Y-1.7311
X3.2811Y-1.5311
X3.2811Y-1.7311
X1.7811Y-1.5311
X1.7811Y-1.7311
X7.8811Y-1.5311
X7.8811Y-1.7311
X6.6811Y-1.5311
X6.6811Y-1.7311
X2.1811Y-1.5311
X2.1811Y-1.7311
X3.3811Y-1.5311
X3.3811Y-1.7311
X9.7811Y-1.3811
X9.9811Y-1.3811
X2.8811Y-1.5311
X2.8811Y-1.7311
X7.4811Y-1.5311
X7.4811Y-1.7311
X7.9811Y-1.5311
X7.9811Y-1.7311
X6.5811Y-1.5311
X6.5811Y-1.7311
X4.4811Y-1.5311
X4.4811Y-1.7311
X3.0811Y-1.5311
X3.0811Y-1.7311
X6.2811Y-1.5311
X6.2811Y-1.7311
X4.3811Y-1.5311
X4.3811Y-1.7311
X3.9811Y-1.5311
X3.9811Y-1.7311
X4.5811Y-1.5311
X4.5811Y-1.7311
X5.2811Y-1.5311
X5.2811Y-1.7311
X3.1811Y-1.5311
X3.1811Y-1.7311
X7.6811Y-1.5311
X7.6811Y-1.7311
X4.2811Y-1.5311
X4.2811Y-1.7311
X4.0811Y-1.5311
X4.0811Y-1.7311
X2.7811Y-1.5311
X2.7811Y-1.7311
X6.4811Y-1.5311
X6.4811Y-1.7311
X5.3811Y-1.5311
X5.3811Y-1.7311
X1.6811Y-1.5311
X1.6811Y-1.7311
X5.1811Y-1.5311
X5.1811Y-1.7311
X4.1811Y-1.5311
X4.1811Y-1.7311
X9.7811Y-1.2811
X9.9811Y-1.2811
X2.6811Y-1.5311
X2.6811Y-1.7311
X2.2811Y-1.5311
X2.2811Y-1.7311
X3.4811Y-1.5311
X3.4811Y-1.7311
X10.1811Y-1.2811
X10.1811Y-1.4811
X7.1811Y-1.5311
X7.1811Y-1.7311
X5.9811Y-1.5311
X5.9811Y-1.7311
X5.5811Y-1.5311
X5.5811Y-1.7311
X1.8811Y-1.5311
X1.8811Y-1.7311
X5.6811Y-1.5311
X5.6811Y-1.7311
X3.5811Y-1.5311
X3.5811Y-1.7311
X4.6811Y-1.5311
X4.6811Y-1.7311
X4.7811Y-1.5311
X4.7811Y-1.7311
X7.0811Y-1.5311
X7.0811Y-1.7311
X4.9811Y-1.5311
X4.9811Y-1.7311
X9.7811Y-1.4811
X9.9811Y-1.4811
X3.6811Y-1.5311
X3.6811Y-1.7311
X3.7811Y-1.5311
X3.7811Y-1.7311
X7.5811Y-1.5311
X7.5811Y-1.7311
X7.3811Y-1.5311
X7.3811Y-1.7311
X7.2811Y-1.5311
X7.2811Y-1.7311
X5.8811Y-1.5311
X5.8811Y-1.7311
X2.5811Y-1.5311
X2.5811Y-1.7311
X6.9811Y-1.5311
X6.9811Y-1.7311
X5.4811Y-1.5311
X5.4811Y-1.7311
X5.0811Y-1.5311
X5.0811Y-1.7311
X8.5311Y-1.5811
X8.5311Y-1.7811
X2.3811Y-1.5311
X2.3811Y-1.7311
X2.4811Y-1.5311
X2.4811Y-1.7311
X4.8811Y-1.5311
X4.8811Y-1.7311
X10.5561Y-1.6811
X10.5561Y-1.8819
X6.0811Y-1.5311
X6.0811Y-1.7311
X6.3811Y-1.5311
X6.3811Y-1.7311
X2.9811Y-1.5311
X2.9811Y-1.7311
X1.9811Y-1.5311
X1.9811Y-1.7311
X6.7811Y-1.5311
X6.7811Y-1.7311
X3.8811Y-1.5311
X3.8811Y-1.7311
X7.7811Y-1.5311
X7.7811Y-1.7311
X2.0811Y-1.5311
X2.0811Y-1.7311
T4
X9.5811Y-1.2843
X9.5811Y-1.4811
X9.4811Y-1.3827
X9.4811Y-1.4811
X9.0811Y-1.4061
X9.2732Y-1.4061
X9.3811Y-1.9811
X9.578Y-1.9811
X8.8811Y-1.3827
X8.8811Y-1.4811
X8.8811Y-1.5811
X8.8811Y-1.8811
X8.9811Y-1.5811
X8.9811Y-1.8811
X9.0811Y-1.5811
X9.0811Y-1.8811
X9.1811Y-1.5811
X9.1811Y-1.8811
X9.2811Y-1.5811
X9.2811Y-1.8811
X9.3811Y-1.5811
X9.3811Y-1.8811
X9.4811Y-1.5811
X9.4811Y-1.8811
X9.5811Y-1.5811
X9.5811Y-1.8811
X9.6811Y-1.5811
X9.6811Y-1.8811
X9.7811Y-1.5811
X9.7811Y-1.8811
X9.8811Y-1.5811
X9.8811Y-1.8811
X9.9811Y-1.5811
X9.9811Y-1.8811
X10.0811Y-1.5811
X10.0811Y-1.8811
X10.1811Y-1.5811
X10.1811Y-1.8811
T5
X10.7811Y-1.3061
X10.7811Y-1.4061
X10.7811Y-1.5061
X10.7811Y-1.6061
X10.7811Y-1.7061
X10.7811Y-1.8061
X10.7811Y-1.9061
X10.8811Y-1.3061
X10.8811Y-1.4061
X10.8811Y-1.5061
X10.8811Y-1.6061
X10.8811Y-1.7061
X10.8811Y-1.8061
X10.8811Y-1.9061
X10.9811Y-1.3061
X10.9811Y-1.4061
X10.9811Y-1.5061
X10.9811Y-1.6061
X10.9811Y-1.7061
X10.9811Y-1.8061
X10.9811Y-1.9061
X11.0811Y-1.3061
X11.0811Y-1.4061
X11.0811Y-1.5061
X11.0811Y-1.6061
X11.0811Y-1.7061
X11.0811Y-1.8061
X11.0811Y-1.9061
X11.1811Y-1.3061
X11.1811Y-1.4061
X11.1811Y-1.5061
X11.1811Y-1.6061
X11.1811Y-1.7061
X11.1811Y-1.8061
X11.1811Y-1.9061
X11.2811Y-1.3061
X11.2811Y-1.4061
X11.2811Y-1.5061
X11.2811Y-1.6061
X11.2811Y-1.7061
X11.2811Y-1.8061
X11.2811Y-1.9061
X11.3811Y-1.3061
X11.3811Y-1.4061
X11.3811Y-1.5061
X11.3811Y-1.6061
X11.3811Y-1.7061
X11.3811Y-1.8061
X11.3811Y-1.9061
X11.4811Y-1.3061
X11.4811Y-1.4061
X11.4811Y-1.5061
X11.4811Y-1.6061
X11.4811Y-1.7061
X11.4811Y-1.8061
X11.4811Y-1.9061
X11.5811Y-1.3061
X11.5811Y-1.4061
X11.5811Y-1.5061
X11.5811Y-1.6061
X11.5811Y-1.7061
X11.5811Y-1.8061
X11.5811Y-1.9061
X11.6811Y-1.3061
X11.6811Y-1.4061
X11.6811Y-1.5061
X11.6811Y-1.6061
X11.6811Y-1.7061
X11.6811Y-1.8061
X11.6811Y-1.9061
X11.7811Y-1.3061
X11.7811Y-1.4061
X11.7811Y-1.5061
X11.7811Y-1.6061
X11.7811Y-1.7061
X11.7811Y-1.8061
X11.7811Y-1.9061
X11.8811Y-1.3061
X11.8811Y-1.4061
X11.8811Y-1.5061
X11.8811Y-1.6061
X11.8811Y-1.7061
X11.8811Y-1.8061
X11.8811Y-1.9061
X11.9811Y-1.3061
X11.9811Y-1.4061
X11.9811Y-1.5061
X11.9811Y-1.6061
X11.9811Y-1.7061
X11.9811Y-1.8061
X11.9811Y-1.9061
X8.1811Y-1.6811
X8.1811Y-1.7811
X8.2811Y-1.6811
X8.2811Y-1.7811
X8.3811Y-1.6811
X8.3811Y-1.7811
T6
X8.0652Y-1.2539
X8.0652Y-1.4311
X8.3211Y-1.2539
X8.3211Y-1.4311
X8.4752Y-1.2539
X8.4752Y-1.4311
X8.7311Y-1.2539
X8.7311Y-1.4311
T7
X7.9504Y-3.8173
X8.2004Y-3.7173
X4.2102Y-3.8173
X4.4602Y-3.7173
X3.2752Y-3.0693
X3.5252Y-2.9693
X8.8854Y-2.3213
X9.1354Y-2.2213
X6.1738Y-5.3134
X6.4238Y-5.2134
X1.4986Y-4.5654
X1.7486Y-4.4654
X8.3244Y-4.5654
X8.5744Y-4.4654
X11.5035Y-2.3213
X11.7535Y-2.2213
X11.7841Y-5.3134
X12.0341Y-5.2134
X7.7634Y-3.0693
X8.0134Y-2.9693
X4.9583Y-3.8173
X5.2083Y-3.7173
X2.7142Y-3.8173
X2.9642Y-3.7173
X2.9012Y-2.3213
X3.1512Y-2.2213
X2.5272Y-3.0693
X2.7772Y-2.9693
X6.6413Y-2.3213
X6.8913Y-2.2213
X1.5921Y-3.0693
X1.8421Y-2.9693
X7.5764Y-4.5654
X7.8264Y-4.4654
X2.4337Y-5.3134
X2.6837Y-5.2134
X11.41Y-3.8173
X11.66Y-3.7173
X11.223Y-4.5654
X11.473Y-4.4654
X2.3402Y-4.5654
X2.5902Y-4.4654
X10.7555Y-3.0693
X11.0055Y-2.9693
X5.7063Y-3.8173
X5.9563Y-3.7173
X5.5193Y-3.0693
X5.7693Y-2.9693
X11.8776Y-2.3213
X5.1453Y-2.3213
X5.3953Y-2.2213
X8.1374Y-2.3213
X8.3874Y-2.2213
X10.9425Y-3.8173
X11.1925Y-3.7173
X5.3323Y-4.5654
X5.5823Y-4.4654
X6.8283Y-4.5654
X7.0783Y-4.4654
X9.914Y-5.3134
X10.164Y-5.2134
X9.2594Y-3.0693
X9.5094Y-2.9693
X7.0154Y-3.0693
X7.2654Y-2.9693
X3.0882Y-4.5654
X3.3382Y-4.4654
X4.7713Y-3.0693
X5.0213Y-2.9693
X10.3815Y-2.3213
X10.6315Y-2.2213
X2.1531Y-2.3213
X2.4031Y-2.2213
X4.5843Y-4.5654
X4.8343Y-4.4654
X3.8362Y-4.5654
X4.0862Y-4.4654
X6.0803Y-4.5654
X6.3303Y-4.4654
X10.849Y-5.3134
X11.099Y-5.2134
X11.1295Y-2.3213
X11.3795Y-2.2213
X8.5114Y-3.0693
X8.7614Y-2.9693
X3.4622Y-3.8173
X3.7122Y-3.7173
X6.2673Y-3.0693
X6.5173Y-2.9693
X10.0075Y-3.0693
X10.2575Y-2.9693
X10.1945Y-3.8173
X10.4445Y-3.7173
X5.8933Y-2.3213
X6.1433Y-2.2213
X3.6492Y-2.3213
X3.8992Y-2.2213
X11.8776Y-4.5654
X12.1276Y-4.4654
X11.9906Y-3.2693
X8.6984Y-3.8173
X8.9484Y-3.7173
X7.2024Y-3.8173
X7.4524Y-3.7173
X7.3894Y-2.3213
X7.6394Y-2.2213
X4.3972Y-2.3213
X4.6472Y-2.2213
X1.6856Y-3.8173
X1.9356Y-3.7173
X11.8341Y-3.6933
X1.8726Y-4.5654
X2.1226Y-4.4654
X8.9789Y-5.3134
X9.2289Y-5.2134
X9.4465Y-3.8173
X9.6965Y-3.7173
X6.4543Y-3.8173
X6.7043Y-3.7173
X4.0232Y-3.0693
X4.2732Y-2.9693
X1.4051Y-2.3213
X1.6551Y-2.2213
X9.8205Y-4.5654
X10.0705Y-4.4654
X9.6335Y-2.3213
X9.8835Y-2.2213
X9.0724Y-4.5654
X9.3224Y-4.4654
X1.4986Y-5.3134
X1.7486Y-5.2134
X10.849Y-4.5654
X11.099Y-4.4654
X3.3687Y-5.3134
X3.6187Y-5.2134
T8
X4.9213Y-2.7756
X5.1181Y-4.311
X6.7913Y-1.3386
X8.8484Y-4.311
X1.3583Y-1.8898
X1.3583Y-1.3583
X12.2244Y-1.3583
X12.2244Y-1.8898
X2.1161Y-5.6299
X8.6614Y-2.7756
X11.4665Y-5.6299
T9
X6.2173Y-3.1693
X6.6173Y-3.1693
X9.9575Y-3.1693
X10.3575Y-3.1693
X10.1445Y-3.9173
X10.5445Y-3.9173
X5.8433Y-2.4213
X6.2433Y-2.4213
X3.5992Y-2.4213
X3.9992Y-2.4213
X11.8276Y-4.6654
X12.2276Y-4.6654
X11.6406Y-3.1693
X12.0406Y-3.1693
X8.6484Y-3.9173
X9.0484Y-3.9173
X7.1524Y-3.9173
X7.5524Y-3.9173
X7.3394Y-2.4213
X7.7394Y-2.4213
X4.3472Y-2.4213
X4.7472Y-2.4213
X1.6356Y-3.9173
X2.0356Y-3.9173
X11.9341Y-3.3433
X11.9341Y-3.7433
X8.9289Y-5.4134
X9.3289Y-5.4134
X9.3965Y-3.9173
X9.7965Y-3.9173
X6.4043Y-3.9173
X6.8043Y-3.9173
X3.9732Y-3.1693
X4.3732Y-3.1693
X1.3551Y-2.4213
X1.7551Y-2.4213
X9.7705Y-4.6654
X10.1705Y-4.6654
X9.5835Y-2.4213
X9.9835Y-2.4213
X9.0224Y-4.6654
X9.4224Y-4.6654
X1.4486Y-5.4134
X1.8486Y-5.4134
X10.799Y-4.6654
X3.3187Y-5.4134
X3.7187Y-5.4134
X7.9004Y-3.9173
X8.3004Y-3.9173
X4.1602Y-3.9173
X4.5602Y-3.9173
X3.2252Y-3.1693
X3.6252Y-3.1693
X8.8354Y-2.4213
X9.2354Y-2.4213
X6.1238Y-5.4134
X6.5238Y-5.4134
X1.4486Y-4.6654
X8.2744Y-4.6654
X8.6744Y-4.6654
X11.7341Y-5.4134
X12.1341Y-5.4134
X7.7134Y-3.1693
X8.1134Y-3.1693
X4.9083Y-3.9173
X5.3083Y-3.9173
X2.6642Y-3.9173
X3.0642Y-3.9173
X2.8512Y-2.4213
X3.2512Y-2.4213
X2.4772Y-3.1693
X2.8772Y-3.1693
X6.5913Y-2.4213
X6.9913Y-2.4213
X1.5421Y-3.1693
X1.9421Y-3.1693
X7.5264Y-4.6654
X7.9264Y-4.6654
X2.3837Y-5.4134
X2.7837Y-5.4134
X11.76Y-3.9173
X11.573Y-4.6654
X2.6902Y-4.6654
X10.7055Y-3.1693
X11.1055Y-3.1693
X5.6563Y-3.9173
X6.0563Y-3.9173
X5.4693Y-3.1693
X5.8693Y-3.1693
X12.2276Y-2.4213
X5.0953Y-2.4213
X5.4953Y-2.4213
X8.0874Y-2.4213
X8.4874Y-2.4213
X10.8925Y-3.9173
X5.2823Y-4.6654
X5.6823Y-4.6654
X6.7783Y-4.6654
X7.1783Y-4.6654
X9.864Y-5.4134
X10.264Y-5.4134
X9.2094Y-3.1693
X9.6094Y-3.1693
X6.9654Y-3.1693
X7.3654Y-3.1693
X3.0382Y-4.6654
X3.4382Y-4.6654
X4.7213Y-3.1693
X5.1213Y-3.1693
X10.3315Y-2.4213
X10.7315Y-2.4213
X2.1031Y-2.4213
X2.5031Y-2.4213
X4.5343Y-4.6654
X4.9343Y-4.6654
X3.7862Y-4.6654
X4.1862Y-4.6654
X6.0303Y-4.6654
X6.4303Y-4.6654
X10.799Y-5.4134
X11.199Y-5.4134
X11.0795Y-2.4213
X8.4614Y-3.1693
X8.8614Y-3.1693
X3.4122Y-3.9173
X3.8122Y-3.9173
T10
X4.3553Y-5.689
X8.2923Y-5.689
X1.5541Y-4.9409
X2.4911Y-4.9409
X11.185Y-2.6969
X12.122Y-2.6969
X11.0915Y-4.1929
X12.0285Y-4.1929
X12.2096Y-3.0748
X12.2096Y-4.0118
X10.9045Y-4.9409
X11.8415Y-4.9409
T11
X9.5965Y-3.9173
X6.6043Y-3.9173
X4.1732Y-3.1693
X1.5551Y-2.4213
X9.9705Y-4.6654
X1.5541Y-4.3409
X2.4911Y-4.3409
X9.7835Y-2.4213
X9.2224Y-4.6654
X1.6486Y-5.4134
X10.999Y-4.6654
X3.5187Y-5.4134
X8.1004Y-3.9173
X4.3602Y-3.9173
X3.4252Y-3.1693
X9.0354Y-2.4213
X6.3238Y-5.4134
X11.185Y-2.0969
X12.122Y-2.0969
X1.6486Y-4.6654
X8.4744Y-4.6654
X11.0915Y-3.5929
X11.6535Y-2.4213
X11.9341Y-5.4134
X7.9134Y-3.1693
X5.1083Y-3.9173
X2.8642Y-3.9173
X3.0512Y-2.4213
X2.6772Y-3.1693
X6.7913Y-2.4213
X1.7421Y-3.1693
X7.7264Y-4.6654
X2.5837Y-5.4134
X11.373Y-4.6654
X2.4902Y-4.6654
X10.9055Y-3.1693
X5.8563Y-3.9173
X5.6693Y-3.1693
X12.0276Y-2.4213
X5.2953Y-2.4213
X8.2874Y-2.4213
X11.0925Y-3.9173
X5.4823Y-4.6654
X6.9783Y-4.6654
X10.064Y-5.4134
X11.6096Y-3.0748
X9.4094Y-3.1693
X7.1654Y-3.1693
X3.2382Y-4.6654
X4.9213Y-3.1693
X10.5315Y-2.4213
X2.3031Y-2.4213
X10.9045Y-4.3409
X11.8415Y-4.3409
X4.7343Y-4.6654
X3.9862Y-4.6654
X6.2303Y-4.6654
X10.999Y-5.4134
X11.2795Y-2.4213
X8.6614Y-3.1693
X3.6122Y-3.9173
X6.4173Y-3.1693
X10.1575Y-3.1693
X10.3445Y-3.9173
X6.0433Y-2.4213
X3.7992Y-2.4213
X12.0276Y-4.6654
X11.8406Y-3.1693
X8.8484Y-3.9173
X7.3524Y-3.9173
X7.5394Y-2.4213
X4.5472Y-2.4213
X1.8356Y-3.9173
X4.3553Y-5.089
X8.2923Y-5.089
X2.0226Y-4.6654
X9.1289Y-5.4134
T2
G00X10.4108Y-1.3606
M15
G01X10.4108Y-1.3764
M16
G05
G00X10.6014Y-1.3606
M15
G01X10.6014Y-1.3764
M16
G05
T3
G00X10.3986Y-1.2406
M15
G01X10.3986Y-1.2602
M16
G05
G00X10.6136Y-1.2406
M15
G01X10.6136Y-1.2602
M16
G05
T4
G00X12.1138Y-2.2213
M15
G01X12.1413Y-2.2213
M16
G05
T7
G00X11.734Y-3.4436
M15
G01X11.7406Y-3.369
M16
G05
T9
G00X1.8226Y-4.6654
M15
G01X1.8486Y-4.6654
M16
G05
G00X11.4535Y-2.4213
M15
G01X11.4795Y-2.4213
M16
G05
G00X11.173Y-4.6654
M15
G01X11.199Y-4.6654
M16
G05
G00X2.2226Y-4.6654
M15
G01X2.2902Y-4.6654
M16
G05
G00X11.8276Y-2.4213
M15
G01X11.8535Y-2.4213
M16
G05
G00X11.2925Y-3.9173
M15
G01X11.36Y-3.9173
M16
G05
T11
G00X11.56Y-3.9173
M15
G01X11.6096Y-4.0118
M16
G05
G00X11.9341Y-3.5433
M15
G01X12.0285Y-3.5929
M16
G05
T0
M30
