G04 #@! TF.GenerationSoftware,KiCad,Pcbnew,(5.1.6)-1*
G04 #@! TF.CreationDate,2020-08-30T19:28:48+05:30*
G04 #@! TF.ProjectId,tartan,74617274-616e-42e6-9b69-6361645f7063,rev?*
G04 #@! TF.SameCoordinates,Original*
G04 #@! TF.FileFunction,Legend,Bot*
G04 #@! TF.FilePolarity,Positive*
%FSLAX46Y46*%
G04 Gerber Fmt 4.6, Leading zero omitted, Abs format (unit mm)*
G04 Created by KiCad (PCBNEW (5.1.6)-1) date 2020-08-30 19:28:48*
%MOMM*%
%LPD*%
G01*
G04 APERTURE LIST*
%ADD10C,0.150000*%
G04 APERTURE END LIST*
D10*
X284307261Y-141627380D02*
X283735833Y-141627380D01*
X284021547Y-142627380D02*
X284021547Y-141627380D01*
X282973928Y-142627380D02*
X282973928Y-142103571D01*
X283021547Y-142008333D01*
X283116785Y-141960714D01*
X283307261Y-141960714D01*
X283402500Y-142008333D01*
X282973928Y-142579761D02*
X283069166Y-142627380D01*
X283307261Y-142627380D01*
X283402500Y-142579761D01*
X283450119Y-142484523D01*
X283450119Y-142389285D01*
X283402500Y-142294047D01*
X283307261Y-142246428D01*
X283069166Y-142246428D01*
X282973928Y-142198809D01*
X282497738Y-142627380D02*
X282497738Y-141960714D01*
X282497738Y-142151190D02*
X282450119Y-142055952D01*
X282402500Y-142008333D01*
X282307261Y-141960714D01*
X282212023Y-141960714D01*
X282021547Y-141960714D02*
X281640595Y-141960714D01*
X281878690Y-141627380D02*
X281878690Y-142484523D01*
X281831071Y-142579761D01*
X281735833Y-142627380D01*
X281640595Y-142627380D01*
X280878690Y-142627380D02*
X280878690Y-142103571D01*
X280926309Y-142008333D01*
X281021547Y-141960714D01*
X281212023Y-141960714D01*
X281307261Y-142008333D01*
X280878690Y-142579761D02*
X280973928Y-142627380D01*
X281212023Y-142627380D01*
X281307261Y-142579761D01*
X281354880Y-142484523D01*
X281354880Y-142389285D01*
X281307261Y-142294047D01*
X281212023Y-142246428D01*
X280973928Y-142246428D01*
X280878690Y-142198809D01*
X280402500Y-141960714D02*
X280402500Y-142627380D01*
X280402500Y-142055952D02*
X280354880Y-142008333D01*
X280259642Y-141960714D01*
X280116785Y-141960714D01*
X280021547Y-142008333D01*
X279973928Y-142103571D01*
X279973928Y-142627380D01*
X278783452Y-141960714D02*
X278069166Y-141960714D01*
X278497738Y-141532142D02*
X278783452Y-142817857D01*
X278164404Y-142389285D02*
X278878690Y-142389285D01*
X278450119Y-142817857D02*
X278164404Y-141532142D01*
X277116785Y-141627380D02*
X276545357Y-141627380D01*
X276831071Y-142627380D02*
X276831071Y-141627380D01*
X276212023Y-142627380D02*
X276212023Y-141627380D01*
X275783452Y-142627380D02*
X275783452Y-142103571D01*
X275831071Y-142008333D01*
X275926309Y-141960714D01*
X276069166Y-141960714D01*
X276164404Y-142008333D01*
X276212023Y-142055952D01*
X275307261Y-142627380D02*
X275307261Y-141960714D01*
X275307261Y-142151190D02*
X275259642Y-142055952D01*
X275212023Y-142008333D01*
X275116785Y-141960714D01*
X275021547Y-141960714D01*
X274545357Y-142627380D02*
X274640595Y-142579761D01*
X274688214Y-142532142D01*
X274735833Y-142436904D01*
X274735833Y-142151190D01*
X274688214Y-142055952D01*
X274640595Y-142008333D01*
X274545357Y-141960714D01*
X274402500Y-141960714D01*
X274307261Y-142008333D01*
X274259642Y-142055952D01*
X274212023Y-142151190D01*
X274212023Y-142436904D01*
X274259642Y-142532142D01*
X274307261Y-142579761D01*
X274402500Y-142627380D01*
X274545357Y-142627380D01*
X273354880Y-141960714D02*
X273354880Y-142627380D01*
X273783452Y-141960714D02*
X273783452Y-142484523D01*
X273735833Y-142579761D01*
X273640595Y-142627380D01*
X273497738Y-142627380D01*
X273402500Y-142579761D01*
X273354880Y-142532142D01*
X272450119Y-141960714D02*
X272450119Y-142770238D01*
X272497738Y-142865476D01*
X272545357Y-142913095D01*
X272640595Y-142960714D01*
X272783452Y-142960714D01*
X272878690Y-142913095D01*
X272450119Y-142579761D02*
X272545357Y-142627380D01*
X272735833Y-142627380D01*
X272831071Y-142579761D01*
X272878690Y-142532142D01*
X272926309Y-142436904D01*
X272926309Y-142151190D01*
X272878690Y-142055952D01*
X272831071Y-142008333D01*
X272735833Y-141960714D01*
X272545357Y-141960714D01*
X272450119Y-142008333D01*
X271973928Y-142627380D02*
X271973928Y-141627380D01*
X271545357Y-142627380D02*
X271545357Y-142103571D01*
X271592976Y-142008333D01*
X271688214Y-141960714D01*
X271831071Y-141960714D01*
X271926309Y-142008333D01*
X271973928Y-142055952D01*
X270307261Y-142627380D02*
X270307261Y-141627380D01*
X270307261Y-142103571D02*
X269735833Y-142103571D01*
X269735833Y-142627380D02*
X269735833Y-141627380D01*
X269116785Y-142627380D02*
X269212023Y-142579761D01*
X269259642Y-142532142D01*
X269307261Y-142436904D01*
X269307261Y-142151190D01*
X269259642Y-142055952D01*
X269212023Y-142008333D01*
X269116785Y-141960714D01*
X268973928Y-141960714D01*
X268878690Y-142008333D01*
X268831071Y-142055952D01*
X268783452Y-142151190D01*
X268783452Y-142436904D01*
X268831071Y-142532142D01*
X268878690Y-142579761D01*
X268973928Y-142627380D01*
X269116785Y-142627380D01*
X268212023Y-142627380D02*
X268307261Y-142579761D01*
X268354880Y-142484523D01*
X268354880Y-141627380D01*
X267450119Y-142579761D02*
X267545357Y-142627380D01*
X267735833Y-142627380D01*
X267831071Y-142579761D01*
X267878690Y-142484523D01*
X267878690Y-142103571D01*
X267831071Y-142008333D01*
X267735833Y-141960714D01*
X267545357Y-141960714D01*
X267450119Y-142008333D01*
X267402500Y-142103571D01*
X267402500Y-142198809D01*
X267878690Y-142294047D01*
X265640595Y-142627380D02*
X265973928Y-142151190D01*
X266212023Y-142627380D02*
X266212023Y-141627380D01*
X265831071Y-141627380D01*
X265735833Y-141675000D01*
X265688214Y-141722619D01*
X265640595Y-141817857D01*
X265640595Y-141960714D01*
X265688214Y-142055952D01*
X265735833Y-142103571D01*
X265831071Y-142151190D01*
X266212023Y-142151190D01*
X264831071Y-142579761D02*
X264926309Y-142627380D01*
X265116785Y-142627380D01*
X265212023Y-142579761D01*
X265259642Y-142484523D01*
X265259642Y-142103571D01*
X265212023Y-142008333D01*
X265116785Y-141960714D01*
X264926309Y-141960714D01*
X264831071Y-142008333D01*
X264783452Y-142103571D01*
X264783452Y-142198809D01*
X265259642Y-142294047D01*
X264450119Y-141960714D02*
X264212023Y-142627380D01*
X263973928Y-141960714D01*
X263592976Y-142532142D02*
X263545357Y-142579761D01*
X263592976Y-142627380D01*
X263640595Y-142579761D01*
X263592976Y-142532142D01*
X263592976Y-142627380D01*
X262592976Y-142627380D02*
X263164404Y-142627380D01*
X262878690Y-142627380D02*
X262878690Y-141627380D01*
X262973928Y-141770238D01*
X263069166Y-141865476D01*
X263164404Y-141913095D01*
X283878690Y-144658333D02*
X283926309Y-144610714D01*
X284021547Y-144467857D01*
X284069166Y-144372619D01*
X284116785Y-144229761D01*
X284164404Y-143991666D01*
X284164404Y-143801190D01*
X284116785Y-143563095D01*
X284069166Y-143420238D01*
X284021547Y-143325000D01*
X283926309Y-143182142D01*
X283878690Y-143134523D01*
X283069166Y-144229761D02*
X283164404Y-144277380D01*
X283354880Y-144277380D01*
X283450119Y-144229761D01*
X283497738Y-144182142D01*
X283545357Y-144086904D01*
X283545357Y-143801190D01*
X283497738Y-143705952D01*
X283450119Y-143658333D01*
X283354880Y-143610714D01*
X283164404Y-143610714D01*
X283069166Y-143658333D01*
X282735833Y-144658333D02*
X282688214Y-144610714D01*
X282592976Y-144467857D01*
X282545357Y-144372619D01*
X282497738Y-144229761D01*
X282450119Y-143991666D01*
X282450119Y-143801190D01*
X282497738Y-143563095D01*
X282545357Y-143420238D01*
X282592976Y-143325000D01*
X282688214Y-143182142D01*
X282735833Y-143134523D01*
X282021547Y-143372619D02*
X281973928Y-143325000D01*
X281878690Y-143277380D01*
X281640595Y-143277380D01*
X281545357Y-143325000D01*
X281497738Y-143372619D01*
X281450119Y-143467857D01*
X281450119Y-143563095D01*
X281497738Y-143705952D01*
X282069166Y-144277380D01*
X281450119Y-144277380D01*
X280831071Y-143277380D02*
X280735833Y-143277380D01*
X280640595Y-143325000D01*
X280592976Y-143372619D01*
X280545357Y-143467857D01*
X280497738Y-143658333D01*
X280497738Y-143896428D01*
X280545357Y-144086904D01*
X280592976Y-144182142D01*
X280640595Y-144229761D01*
X280735833Y-144277380D01*
X280831071Y-144277380D01*
X280926309Y-144229761D01*
X280973928Y-144182142D01*
X281021547Y-144086904D01*
X281069166Y-143896428D01*
X281069166Y-143658333D01*
X281021547Y-143467857D01*
X280973928Y-143372619D01*
X280926309Y-143325000D01*
X280831071Y-143277380D01*
X279545357Y-144277380D02*
X280116785Y-144277380D01*
X279831071Y-144277380D02*
X279831071Y-143277380D01*
X279926309Y-143420238D01*
X280021547Y-143515476D01*
X280116785Y-143563095D01*
X279069166Y-144277380D02*
X278878690Y-144277380D01*
X278783452Y-144229761D01*
X278735833Y-144182142D01*
X278640595Y-144039285D01*
X278592976Y-143848809D01*
X278592976Y-143467857D01*
X278640595Y-143372619D01*
X278688214Y-143325000D01*
X278783452Y-143277380D01*
X278973928Y-143277380D01*
X279069166Y-143325000D01*
X279116785Y-143372619D01*
X279164404Y-143467857D01*
X279164404Y-143705952D01*
X279116785Y-143801190D01*
X279069166Y-143848809D01*
X278973928Y-143896428D01*
X278783452Y-143896428D01*
X278688214Y-143848809D01*
X278640595Y-143801190D01*
X278592976Y-143705952D01*
X277545357Y-143277380D02*
X276973928Y-143277380D01*
X277259642Y-144277380D02*
X277259642Y-143277380D01*
X276212023Y-144277380D02*
X276212023Y-143753571D01*
X276259642Y-143658333D01*
X276354880Y-143610714D01*
X276545357Y-143610714D01*
X276640595Y-143658333D01*
X276212023Y-144229761D02*
X276307261Y-144277380D01*
X276545357Y-144277380D01*
X276640595Y-144229761D01*
X276688214Y-144134523D01*
X276688214Y-144039285D01*
X276640595Y-143944047D01*
X276545357Y-143896428D01*
X276307261Y-143896428D01*
X276212023Y-143848809D01*
X275735833Y-144277380D02*
X275735833Y-143277380D01*
X275640595Y-143896428D02*
X275354880Y-144277380D01*
X275354880Y-143610714D02*
X275735833Y-143991666D01*
X274497738Y-143610714D02*
X274497738Y-144277380D01*
X274926309Y-143610714D02*
X274926309Y-144134523D01*
X274878690Y-144229761D01*
X274783452Y-144277380D01*
X274640595Y-144277380D01*
X274545357Y-144229761D01*
X274497738Y-144182142D01*
X274116785Y-143610714D02*
X273878690Y-144277380D01*
X273640595Y-143610714D02*
X273878690Y-144277380D01*
X273973928Y-144515476D01*
X274021547Y-144563095D01*
X274116785Y-144610714D01*
X272831071Y-144277380D02*
X272831071Y-143753571D01*
X272878690Y-143658333D01*
X272973928Y-143610714D01*
X273164404Y-143610714D01*
X273259642Y-143658333D01*
X272831071Y-144229761D02*
X272926309Y-144277380D01*
X273164404Y-144277380D01*
X273259642Y-144229761D01*
X273307261Y-144134523D01*
X273307261Y-144039285D01*
X273259642Y-143944047D01*
X273164404Y-143896428D01*
X272926309Y-143896428D01*
X272831071Y-143848809D01*
X271592976Y-143277380D02*
X271592976Y-144086904D01*
X271545357Y-144182142D01*
X271497738Y-144229761D01*
X271402500Y-144277380D01*
X271212023Y-144277380D01*
X271116785Y-144229761D01*
X271069166Y-144182142D01*
X271021547Y-144086904D01*
X271021547Y-143277380D01*
X270545357Y-144277380D02*
X270545357Y-143610714D01*
X270545357Y-143801190D02*
X270497738Y-143705952D01*
X270450119Y-143658333D01*
X270354880Y-143610714D01*
X270259642Y-143610714D01*
X269497738Y-144277380D02*
X269497738Y-143753571D01*
X269545357Y-143658333D01*
X269640595Y-143610714D01*
X269831071Y-143610714D01*
X269926309Y-143658333D01*
X269497738Y-144229761D02*
X269592976Y-144277380D01*
X269831071Y-144277380D01*
X269926309Y-144229761D01*
X269973928Y-144134523D01*
X269973928Y-144039285D01*
X269926309Y-143944047D01*
X269831071Y-143896428D01*
X269592976Y-143896428D01*
X269497738Y-143848809D01*
X269021547Y-144277380D02*
X269021547Y-143277380D01*
X268926309Y-143896428D02*
X268640595Y-144277380D01*
X268640595Y-143610714D02*
X269021547Y-143991666D01*
X267783452Y-144277380D02*
X267783452Y-143753571D01*
X267831071Y-143658333D01*
X267926309Y-143610714D01*
X268116785Y-143610714D01*
X268212023Y-143658333D01*
X267783452Y-144229761D02*
X267878690Y-144277380D01*
X268116785Y-144277380D01*
X268212023Y-144229761D01*
X268259642Y-144134523D01*
X268259642Y-144039285D01*
X268212023Y-143944047D01*
X268116785Y-143896428D01*
X267878690Y-143896428D01*
X267783452Y-143848809D01*
X267402500Y-143610714D02*
X267212023Y-144277380D01*
X267021547Y-143801190D01*
X266831071Y-144277380D01*
X266640595Y-143610714D01*
X265831071Y-144277380D02*
X265831071Y-143753571D01*
X265878690Y-143658333D01*
X265973928Y-143610714D01*
X266164404Y-143610714D01*
X266259642Y-143658333D01*
X265831071Y-144229761D02*
X265926309Y-144277380D01*
X266164404Y-144277380D01*
X266259642Y-144229761D01*
X266307261Y-144134523D01*
X266307261Y-144039285D01*
X266259642Y-143944047D01*
X266164404Y-143896428D01*
X265926309Y-143896428D01*
X265831071Y-143848809D01*
X265307261Y-144229761D02*
X265307261Y-144277380D01*
X265354880Y-144372619D01*
X265402500Y-144420238D01*
X264116785Y-144277380D02*
X264116785Y-143277380D01*
X263878690Y-143277380D01*
X263735833Y-143325000D01*
X263640595Y-143420238D01*
X263592976Y-143515476D01*
X263545357Y-143705952D01*
X263545357Y-143848809D01*
X263592976Y-144039285D01*
X263640595Y-144134523D01*
X263735833Y-144229761D01*
X263878690Y-144277380D01*
X264116785Y-144277380D01*
X263116785Y-144277380D02*
X263116785Y-143610714D01*
X263116785Y-143705952D02*
X263069166Y-143658333D01*
X262973928Y-143610714D01*
X262831071Y-143610714D01*
X262735833Y-143658333D01*
X262688214Y-143753571D01*
X262688214Y-144277380D01*
X262688214Y-143753571D02*
X262640595Y-143658333D01*
X262545357Y-143610714D01*
X262402500Y-143610714D01*
X262307261Y-143658333D01*
X262259642Y-143753571D01*
X262259642Y-144277380D01*
X261735833Y-144277380D02*
X261545357Y-144277380D01*
X261450119Y-144229761D01*
X261402500Y-144182142D01*
X261307261Y-144039285D01*
X261259642Y-143848809D01*
X261259642Y-143467857D01*
X261307261Y-143372619D01*
X261354880Y-143325000D01*
X261450119Y-143277380D01*
X261640595Y-143277380D01*
X261735833Y-143325000D01*
X261783452Y-143372619D01*
X261831071Y-143467857D01*
X261831071Y-143705952D01*
X261783452Y-143801190D01*
X261735833Y-143848809D01*
X261640595Y-143896428D01*
X261450119Y-143896428D01*
X261354880Y-143848809D01*
X261307261Y-143801190D01*
X261259642Y-143705952D01*
X260259642Y-144277380D02*
X260592976Y-143801190D01*
X260831071Y-144277380D02*
X260831071Y-143277380D01*
X260450119Y-143277380D01*
X260354880Y-143325000D01*
X260307261Y-143372619D01*
X260259642Y-143467857D01*
X260259642Y-143610714D01*
X260307261Y-143705952D01*
X260354880Y-143753571D01*
X260450119Y-143801190D01*
X260831071Y-143801190D01*
X259450119Y-144229761D02*
X259545357Y-144277380D01*
X259735833Y-144277380D01*
X259831071Y-144229761D01*
X259878690Y-144134523D01*
X259878690Y-143753571D01*
X259831071Y-143658333D01*
X259735833Y-143610714D01*
X259545357Y-143610714D01*
X259450119Y-143658333D01*
X259402500Y-143753571D01*
X259402500Y-143848809D01*
X259878690Y-143944047D01*
X258545357Y-144229761D02*
X258640595Y-144277380D01*
X258831071Y-144277380D01*
X258926309Y-144229761D01*
X258973928Y-144182142D01*
X259021547Y-144086904D01*
X259021547Y-143801190D01*
X258973928Y-143705952D01*
X258926309Y-143658333D01*
X258831071Y-143610714D01*
X258640595Y-143610714D01*
X258545357Y-143658333D01*
X257973928Y-144277380D02*
X258069166Y-144229761D01*
X258116785Y-144182142D01*
X258164404Y-144086904D01*
X258164404Y-143801190D01*
X258116785Y-143705952D01*
X258069166Y-143658333D01*
X257973928Y-143610714D01*
X257831071Y-143610714D01*
X257735833Y-143658333D01*
X257688214Y-143705952D01*
X257640595Y-143801190D01*
X257640595Y-144086904D01*
X257688214Y-144182142D01*
X257735833Y-144229761D01*
X257831071Y-144277380D01*
X257973928Y-144277380D01*
X257212023Y-144277380D02*
X257212023Y-143610714D01*
X257212023Y-143801190D02*
X257164404Y-143705952D01*
X257116785Y-143658333D01*
X257021547Y-143610714D01*
X256926309Y-143610714D01*
X256164404Y-144277380D02*
X256164404Y-143277380D01*
X256164404Y-144229761D02*
X256259642Y-144277380D01*
X256450119Y-144277380D01*
X256545357Y-144229761D01*
X256592976Y-144182142D01*
X256640595Y-144086904D01*
X256640595Y-143801190D01*
X256592976Y-143705952D01*
X256545357Y-143658333D01*
X256450119Y-143610714D01*
X256259642Y-143610714D01*
X256164404Y-143658333D01*
X255735833Y-144229761D02*
X255640595Y-144277380D01*
X255450119Y-144277380D01*
X255354880Y-144229761D01*
X255307261Y-144134523D01*
X255307261Y-144086904D01*
X255354880Y-143991666D01*
X255450119Y-143944047D01*
X255592976Y-143944047D01*
X255688214Y-143896428D01*
X255735833Y-143801190D01*
X255735833Y-143753571D01*
X255688214Y-143658333D01*
X255592976Y-143610714D01*
X255450119Y-143610714D01*
X255354880Y-143658333D01*
X254831071Y-144229761D02*
X254831071Y-144277380D01*
X254878690Y-144372619D01*
X254926309Y-144420238D01*
X253164404Y-143277380D02*
X253640595Y-143277380D01*
X253688214Y-143753571D01*
X253640595Y-143705952D01*
X253545357Y-143658333D01*
X253307261Y-143658333D01*
X253212023Y-143705952D01*
X253164404Y-143753571D01*
X253116785Y-143848809D01*
X253116785Y-144086904D01*
X253164404Y-144182142D01*
X253212023Y-144229761D01*
X253307261Y-144277380D01*
X253545357Y-144277380D01*
X253640595Y-144229761D01*
X253688214Y-144182142D01*
X252783452Y-143610714D02*
X252259642Y-143610714D01*
X252783452Y-144277380D01*
X252259642Y-144277380D01*
X251450119Y-143277380D02*
X251640595Y-143277380D01*
X251735833Y-143325000D01*
X251783452Y-143372619D01*
X251878690Y-143515476D01*
X251926309Y-143705952D01*
X251926309Y-144086904D01*
X251878690Y-144182142D01*
X251831071Y-144229761D01*
X251735833Y-144277380D01*
X251545357Y-144277380D01*
X251450119Y-144229761D01*
X251402500Y-144182142D01*
X251354880Y-144086904D01*
X251354880Y-143848809D01*
X251402500Y-143753571D01*
X251450119Y-143705952D01*
X251545357Y-143658333D01*
X251735833Y-143658333D01*
X251831071Y-143705952D01*
X251878690Y-143753571D01*
X251926309Y-143848809D01*
X250926309Y-143610714D02*
X250926309Y-144610714D01*
X250926309Y-143658333D02*
X250831071Y-143610714D01*
X250640595Y-143610714D01*
X250545357Y-143658333D01*
X250497738Y-143705952D01*
X250450119Y-143801190D01*
X250450119Y-144086904D01*
X250497738Y-144182142D01*
X250545357Y-144229761D01*
X250640595Y-144277380D01*
X250831071Y-144277380D01*
X250926309Y-144229761D01*
X250021547Y-144182142D02*
X249973928Y-144229761D01*
X250021547Y-144277380D01*
X250069166Y-144229761D01*
X250021547Y-144182142D01*
X250021547Y-144277380D01*
X249116785Y-144229761D02*
X249212023Y-144277380D01*
X249402500Y-144277380D01*
X249497738Y-144229761D01*
X249545357Y-144182142D01*
X249592976Y-144086904D01*
X249592976Y-143801190D01*
X249545357Y-143705952D01*
X249497738Y-143658333D01*
X249402500Y-143610714D01*
X249212023Y-143610714D01*
X249116785Y-143658333D01*
X248545357Y-144277380D02*
X248640595Y-144229761D01*
X248688214Y-144182142D01*
X248735833Y-144086904D01*
X248735833Y-143801190D01*
X248688214Y-143705952D01*
X248640595Y-143658333D01*
X248545357Y-143610714D01*
X248402500Y-143610714D01*
X248307261Y-143658333D01*
X248259642Y-143705952D01*
X248212023Y-143801190D01*
X248212023Y-144086904D01*
X248259642Y-144182142D01*
X248307261Y-144229761D01*
X248402500Y-144277380D01*
X248545357Y-144277380D01*
X247783452Y-144277380D02*
X247783452Y-143610714D01*
X247783452Y-143705952D02*
X247735833Y-143658333D01*
X247640595Y-143610714D01*
X247497738Y-143610714D01*
X247402500Y-143658333D01*
X247354880Y-143753571D01*
X247354880Y-144277380D01*
X247354880Y-143753571D02*
X247307261Y-143658333D01*
X247212023Y-143610714D01*
X247069166Y-143610714D01*
X246973928Y-143658333D01*
X246926309Y-143753571D01*
X246926309Y-144277380D01*
M02*
